# xmcd CD database file
#
# Track frame offsets:
#	150
#	21330
#	46679
#	60479
#	98881
#	108028
#	142714
#	160789
#	173090
#	198438
#
# Disc length: 2770 seconds
#
# Revision: 1
# Processed by: cddbd v1.5.2PL0 Copyright (c) Steve Scherf et al.
# Submitted via: CDex 1.70beta2
#
DISCID=710ad00a
DTITLE=Annarita Romito jazz trio - Frida Identita' Multiple
DYEAR=2007
DGENRE=Jazz
TTITLE0=01 Tra Cielo E Terra - 01 Tra Cielo E Terra
TTITLE1=02 Hablar De Ti - 02 Hablar De Ti
TTITLE2=03 Storie Di Donne - 03 Storie Di Donne
TTITLE3=04 Tina - S Mood
TTITLE4=05 - Freeda
TTITLE5=06 Different People - 06 Different People
TTITLE6=07 Life And Art - 07 Life And Art
TTITLE7=08 Among Dream And Reality - 08 Among Dream And Reality
TTITLE8=09 Frida Identit￠ Multiple - 09 Frida Identit￠ Multiple
TTITLE9=10 Eres Manana - 10 Eres Manana
EXTD=YEAR: 2007
EXTT0=
EXTT1=
EXTT2=
EXTT3=
EXTT4=
EXTT5=
EXTT6=
EXTT7=
EXTT8=
EXTT9=
PLAYORDER=
